<svg xmlns="http://www.w3.org/2000/svg" width="152" height="64" viewBox="0 0 152 64">
    <path fill="#283469" fill-rule="evenodd" d="M134 26h-8V18.002c0-.463.058-.907.135-1.344C126.778 12.883 130.04 10 134 10a8 8 0 0 1 0 16m-.131-26c-9.571 0-17.391 7.433-18.065 16.85l-.066 1.676V25.968h-40.36c.415-3.62 1.655-6.665 3.788-9.02 2.634-2.906 6.102-4.382 10.314-4.382 4.986 0 8.569 2.163 10.644 6.43l.08.166h12.131l-.137-.397c-1.742-5.055-4.68-9.037-8.736-11.837-4.06-2.793-8.763-4.21-13.982-4.21-6.872 0-12.76 2.465-17.499 7.332-4.17 4.278-6.526 9.623-7.036 15.918H24.776c.415-3.62 1.655-6.668 3.785-9.02 2.634-2.906 6.105-4.382 10.317-4.382 4.986 0 8.569 2.163 10.641 6.43l.084.166H61.73l-.134-.397c-1.74-5.055-4.68-9.037-8.74-11.837-4.058-2.793-8.762-4.21-13.978-4.21-6.872 0-12.76 2.465-17.502 7.332-4.167 4.278-6.526 9.623-7.036 15.918H8.145v-4.544L0 31.146l8.145 9.721v-4.544h7.057a24.445 24.445 0 0 0 6.138 10.86c4.719 4.864 10.621 7.328 17.538 7.328 5.216 0 9.923-1.4 13.976-4.173 4.06-2.773 7-6.746 8.742-11.801l.134-.395H49.603l-.08.162c-2.118 4.27-5.7 6.432-10.645 6.432-4.212 0-7.683-1.476-10.317-4.383-1.056-1.168-1.846-2.542-2.485-4.03h39.728c1.107 4.144 3.156 7.777 6.141 10.86 4.719 4.864 10.618 7.328 17.535 7.328 5.22 0 9.923-1.4 13.982-4.173 4.056-2.773 6.994-6.746 8.736-11.801l.137-.395h-12.127l-.084.162c-2.114 4.27-5.7 6.432-10.644 6.432-4.212 0-7.683-1.476-10.314-4.383-1.056-1.168-1.85-2.542-2.487-4.03h39.06v19.518h-4.54L120.904 64l9.705-8.16h-4.533V36.324H133.869c10.012 0 18.131-8.132 18.131-18.161C152 8.129 143.881 0 133.869 0"/>
</svg>
