<svg xmlns="http://www.w3.org/2000/svg" width="193" height="81" viewBox="0 0 193 81">
    <path fill="#FFF" fill-rule="evenodd" d="M169.978 32.866h-9.895v-9.88c0-.571.072-1.12.166-1.66.796-4.662 4.833-8.224 9.73-8.224 5.464 0 9.895 4.424 9.895 9.884 0 5.456-4.43 9.88-9.896 9.88m0-32.866c-12.152 0-22.082 9.408-22.938 21.326l-.083 2.121v9.419H95.71c.527-4.583 2.102-8.436 4.81-11.415 3.344-3.68 7.748-5.547 13.096-5.547 6.332 0 10.88 2.737 13.516 8.137l.102.211h15.402l-.174-.503c-2.212-6.397-5.942-11.438-11.093-14.98-5.154-3.536-11.126-5.328-17.753-5.328-8.726 0-16.201 3.12-22.22 9.279-5.293 5.414-8.285 12.179-8.933 20.146H31.46c.527-4.583 2.102-8.44 4.806-11.415 3.344-3.68 7.752-5.547 13.1-5.547 6.331 0 10.88 2.737 13.512 8.137l.106.211H78.38l-.17-.503c-2.208-6.397-5.943-11.438-11.097-14.98C61.96 5.233 55.988 3.44 49.364 3.44c-8.725 0-16.2 3.12-22.222 9.279-5.29 5.414-8.286 12.179-8.934 20.146h-7.866v-5.751L0 39.419l10.342 12.303v-5.75h8.96c1.402 5.244 4.007 9.842 7.794 13.744 5.992 6.156 13.486 9.275 22.268 9.275 6.624 0 12.6-1.773 17.747-5.282 5.154-3.51 8.888-8.538 11.1-14.936l.17-.499H62.983l-.103.204c-2.688 5.404-7.237 8.141-13.516 8.141-5.347 0-9.755-1.868-13.1-5.547-1.34-1.478-2.343-3.218-3.154-5.1h50.444c1.405 5.244 4.007 9.842 7.797 13.744 5.992 6.156 13.482 9.275 22.265 9.275 6.627 0 12.6-1.773 17.753-5.282 5.15-3.51 8.881-8.538 11.093-14.936l.174-.499h-15.398l-.106.204c-2.685 5.404-7.237 8.141-13.516 8.141-5.348 0-9.756-1.868-13.096-5.547-1.34-1.478-2.348-3.218-3.158-5.1h49.595v24.702h-5.764L153.516 81l12.323-10.326h-5.756V45.97h9.895C182.692 45.971 193 35.68 193 22.986 193 10.289 182.692 0 169.978 0"/>
</svg>
